<svg width="30" height="30" viewBox="0 0 30 30" fill="none" xmlns="http://www.w3.org/2000/svg">
<g clip-path="url(#clip0_55_341)">
<path d="M7.24222 22.9277C7.99808 22.377 8.97659 22.2363 9.8555 22.5527C11.4082 23.1152 13.1485 23.4375 15 23.4375C22.3067 23.4375 27.1875 18.7207 27.1875 14.0625C27.1875 9.4043 22.3067 4.6875 15 4.6875C7.69339 4.6875 2.81253 9.4043 2.81253 14.0625C2.81253 15.9375 3.53909 17.7422 4.90433 19.2891C5.40823 19.8574 5.65433 20.6074 5.59573 21.3691C5.5137 22.4297 5.26175 23.4023 4.93362 24.2637C5.92972 23.8008 6.75589 23.2852 7.24222 22.9336V22.9277ZM1.24222 25.3066C1.34768 25.1484 1.44729 24.9902 1.54104 24.832C2.12698 23.8594 2.68362 22.582 2.79495 21.1465C1.03714 19.1484 2.86186e-05 16.7051 2.86186e-05 14.0625C2.86186e-05 7.33008 6.71487 1.875 15 1.875C23.2852 1.875 30 7.33008 30 14.0625C30 20.7949 23.2852 26.25 15 26.25C12.8262 26.25 10.7637 25.875 8.90042 25.2012C8.20315 25.7109 7.06643 26.4082 5.71878 26.9941C4.83401 27.3809 3.8262 27.7324 2.78323 27.9375C2.73636 27.9492 2.68948 27.9551 2.64261 27.9668C2.38479 28.0137 2.13284 28.0547 1.86917 28.0781C1.85745 28.0781 1.83987 28.084 1.82815 28.084C1.52933 28.1133 1.2305 28.1309 0.931669 28.1309C0.55081 28.1309 0.210966 27.9023 0.0644818 27.5508C-0.0820026 27.1992 2.86065e-05 26.8008 0.2637 26.5312C0.503935 26.2852 0.720732 26.0215 0.92581 25.7402C1.02542 25.6055 1.11917 25.4707 1.20706 25.3359C1.21292 25.3242 1.21878 25.3184 1.22464 25.3066H1.24222Z" fill="#333333"/>
</g>
<defs>
<clipPath id="clip0_55_341">
<rect width="30" height="30" fill="white"/>
</clipPath>
</defs>
</svg>
