<svg width="30" height="33" viewBox="0 0 30 33" fill="none" xmlns="http://www.w3.org/2000/svg">
<g clip-path="url(#clip0_55_331)">
<path d="M6.12891 3.04342H3.75C1.68164 3.04342 0 4.86313 0 7.10131V24.3473C0 26.5855 1.68164 28.4052 3.75 28.4052H9.375V25.3618H3.75C3.23438 25.3618 2.8125 24.9053 2.8125 24.3473V7.10131C2.8125 6.54335 3.23438 6.08683 3.75 6.08683H4.6875C4.6875 7.2091 5.52539 8.11578 6.5625 8.11578H10.8047C11.8359 6.87305 13.3359 6.08683 15 6.08683H18.6328C18.2168 4.33687 16.7461 3.04342 15 3.04342H12.6211C12.3984 1.32515 11.0273 0 9.375 0C7.72266 0 6.35156 1.32515 6.12891 3.04342ZM8.4375 3.55065C8.4375 3.2816 8.53627 3.02356 8.71209 2.83331C8.8879 2.64306 9.12636 2.53618 9.375 2.53618C9.62364 2.53618 9.8621 2.64306 10.0379 2.83331C10.2137 3.02356 10.3125 3.2816 10.3125 3.55065C10.3125 3.81971 10.2137 4.07774 10.0379 4.26799C9.8621 4.45824 9.62364 4.56513 9.375 4.56513C9.12636 4.56513 8.8879 4.45824 8.71209 4.26799C8.53627 4.07774 8.4375 3.81971 8.4375 3.55065ZM26.25 29.4197H15C14.4844 29.4197 14.0625 28.9632 14.0625 28.4052V12.1737C14.0625 11.6157 14.4844 11.1592 15 11.1592H23.209L27.1875 15.4644V28.4052C27.1875 28.9632 26.7656 29.4197 26.25 29.4197ZM15 32.4631H26.25C28.3184 32.4631 30 30.6434 30 28.4052V15.4644C30 14.6591 29.7012 13.8856 29.1738 13.315L25.1953 9.00978C24.668 8.43914 23.9531 8.11578 23.209 8.11578H15C12.9316 8.11578 11.25 9.93549 11.25 12.1737V28.4052C11.25 30.6434 12.9316 32.4631 15 32.4631Z" fill="#333333"/>
</g>
<defs>
<clipPath id="clip0_55_331">
<rect width="30" height="32.4631" fill="white"/>
</clipPath>
</defs>
</svg>
