<svg width="30" height="30" viewBox="0 0 30 30" fill="none" xmlns="http://www.w3.org/2000/svg">
<g clip-path="url(#clip0_56_420)">
<path d="M9.05357 1.03711C9.41518 0.398438 10.1585 0 10.9688 0H19.0312C19.8415 0 20.5848 0.398438 20.9464 1.03711L21.4286 1.875H27.8571C29.0424 1.875 30 2.71289 30 3.75C30 4.78711 29.0424 5.625 27.8571 5.625H2.14286C0.957589 5.625 0 4.78711 0 3.75C0 2.71289 0.957589 1.875 2.14286 1.875H8.57143L9.05357 1.03711ZM2.14286 7.5H27.8571V26.25C27.8571 28.3184 25.9353 30 23.5714 30H6.42857C4.06473 30 2.14286 28.3184 2.14286 26.25V7.5ZM8.57143 11.25C7.98214 11.25 7.5 11.6719 7.5 12.1875V25.3125C7.5 25.8281 7.98214 26.25 8.57143 26.25C9.16071 26.25 9.64286 25.8281 9.64286 25.3125V12.1875C9.64286 11.6719 9.16071 11.25 8.57143 11.25ZM15 11.25C14.4107 11.25 13.9286 11.6719 13.9286 12.1875V25.3125C13.9286 25.8281 14.4107 26.25 15 26.25C15.5893 26.25 16.0714 25.8281 16.0714 25.3125V12.1875C16.0714 11.6719 15.5893 11.25 15 11.25ZM21.4286 11.25C20.8393 11.25 20.3571 11.6719 20.3571 12.1875V25.3125C20.3571 25.8281 20.8393 26.25 21.4286 26.25C22.0179 26.25 22.5 25.8281 22.5 25.3125V12.1875C22.5 11.6719 22.0179 11.25 21.4286 11.25Z" fill="#333333"/>
</g>
<defs>
<clipPath id="clip0_56_420">
<rect width="30" height="30" fill="white"/>
</clipPath>
</defs>
</svg>
