<svg width="30" height="30" viewBox="0 0 30 30" fill="none" xmlns="http://www.w3.org/2000/svg">
<g clip-path="url(#clip0_56_422)">
<path d="M24.041 13.5352L24.7031 12.873L22.7168 10.8867L19.0781 7.24805L17.0918 5.26172L16.4297 5.92383L15.1054 7.24805L3.43356 18.9199C2.82419 19.5293 2.37888 20.2852 2.13278 21.1113L0.0585648 28.166C-0.0879196 28.6582 0.046846 29.1914 0.415987 29.5547C0.785127 29.918 1.31247 30.0527 1.80466 29.9121L8.85349 27.8379C9.67966 27.5918 10.4355 27.1465 11.0449 26.5371L22.7168 14.8652L24.041 13.5352ZM9.37497 23.4023L8.84177 24.7324C8.60739 24.9141 8.34372 25.0488 8.06247 25.1367L3.48044 26.4844L4.8281 21.9082C4.91013 21.6211 5.05075 21.3574 5.23239 21.1289L6.56247 20.5957V22.4707C6.56247 22.9863 6.98435 23.4082 7.49997 23.4082H9.37497V23.4023ZM21.2519 1.0957L20.4082 1.94531L19.084 3.26953L18.416 3.93164L20.4023 5.91797L24.041 9.55664L26.0273 11.543L26.6894 10.8809L28.0136 9.55664L28.8633 8.70703C30.3281 7.24219 30.3281 4.86914 28.8633 3.4043L26.5605 1.0957C25.0957 -0.369141 22.7226 -0.369141 21.2578 1.0957H21.2519ZM18.4746 10.9395L10.0371 19.377C9.6738 19.7402 9.07614 19.7402 8.71286 19.377C8.34958 19.0137 8.34958 18.416 8.71286 18.0527L17.1504 9.61524C17.5136 9.25195 18.1113 9.25195 18.4746 9.61524C18.8379 9.97852 18.8379 10.5762 18.4746 10.9395Z" fill="#333333"/>
</g>
<defs>
<clipPath id="clip0_56_422">
<rect width="30" height="30" fill="white"/>
</clipPath>
</defs>
</svg>
