<svg width="30" height="30" viewBox="0 0 30 30" fill="none" xmlns="http://www.w3.org/2000/svg">
<path d="M2.78906 17.6015L13.377 27.4863C13.8164 27.8964 14.3965 28.1249 15 28.1249C15.6035 28.1249 16.1836 27.8964 16.623 27.4863L27.2109 17.6015C28.9922 15.9433 30 13.6171 30 11.1855V10.8457C30 6.74995 27.041 3.25776 23.0039 2.58393C20.332 2.13862 17.6133 3.01167 15.7031 4.92182L15 5.62495L14.2969 4.92182C12.3867 3.01167 9.66797 2.13862 6.99609 2.58393C2.95898 3.25776 0 6.74995 0 10.8457V11.1855C0 13.6171 1.00781 15.9433 2.78906 17.6015Z" fill="#333333"/>
</svg>
