<svg width="30" height="30" viewBox="0 0 30 30" fill="none" xmlns="http://www.w3.org/2000/svg">
<path d="M13.2305 27.4336L13.084 27.2988L2.81836 17.7656C1.01953 16.0957 0 13.752 0 11.2969V11.1035C0 6.97853 2.92969 3.43947 6.98438 2.66603C9.29297 2.22072 11.6543 2.75392 13.5352 4.07814C14.0625 4.45314 14.5547 4.88673 15 5.38478C15.2461 5.10353 15.5098 4.84572 15.791 4.60548C16.0078 4.41798 16.2305 4.2422 16.4648 4.07814C18.3457 2.75392 20.707 2.22072 23.0156 2.66017C27.0703 3.43361 30 6.97853 30 11.1035V11.2969C30 13.752 28.9805 16.0957 27.1816 17.7656L16.916 27.2988L16.7695 27.4336C16.2891 27.8789 15.6562 28.1309 15 28.1309C14.3438 28.1309 13.7109 27.8848 13.2305 27.4336ZM14.0098 8.49611C13.9863 8.47853 13.9688 8.45509 13.9512 8.43165L12.9082 7.25978L12.9023 7.25392C11.5488 5.73634 9.50391 5.04493 7.51172 5.42579C4.78125 5.94728 2.8125 8.32618 2.8125 11.1035V11.2969C2.8125 12.9668 3.50977 14.5664 4.73438 15.7031L15 25.2363L25.2656 15.7031C26.4902 14.5664 27.1875 12.9668 27.1875 11.2969V11.1035C27.1875 8.33204 25.2188 5.94728 22.4941 5.42579C20.502 5.04493 18.4512 5.7422 17.1035 7.25392C17.1035 7.25392 17.1035 7.25392 17.0977 7.25978C17.0918 7.26564 17.0977 7.25978 17.0918 7.26564L16.0488 8.43751C16.0312 8.46095 16.0078 8.47853 15.9902 8.50197C15.7266 8.76564 15.3691 8.91212 15 8.91212C14.6309 8.91212 14.2734 8.76564 14.0098 8.50197V8.49611Z" fill="#333333"/>
</svg>
