<svg width="25" height="25" viewBox="0 0 25 25" fill="none" xmlns="http://www.w3.org/2000/svg">
<path d="M4.6875 0C2.96387 0 1.5625 1.40137 1.5625 3.125V21.875C1.5625 23.5986 2.96387 25 4.6875 25H18.75C20.4736 25 21.875 23.5986 21.875 21.875V3.125C21.875 1.40137 20.4736 0 18.75 0H4.6875ZM10.1562 14.0625H13.2812C15.4395 14.0625 17.1875 15.8105 17.1875 17.9688C17.1875 18.3984 16.8359 18.75 16.4062 18.75H7.03125C6.60156 18.75 6.25 18.3984 6.25 17.9688C6.25 15.8105 7.99805 14.0625 10.1562 14.0625ZM8.59375 9.375C8.59375 8.5462 8.92299 7.75134 9.50904 7.16529C10.0951 6.57924 10.8899 6.25 11.7188 6.25C12.5476 6.25 13.3424 6.57924 13.9285 7.16529C14.5145 7.75134 14.8438 8.5462 14.8438 9.375C14.8438 10.2038 14.5145 10.9987 13.9285 11.5847C13.3424 12.1708 12.5476 12.5 11.7188 12.5C10.8899 12.5 10.0951 12.1708 9.50904 11.5847C8.92299 10.9987 8.59375 10.2038 8.59375 9.375ZM25 3.90625C25 3.47656 24.6484 3.125 24.2188 3.125C23.7891 3.125 23.4375 3.47656 23.4375 3.90625V7.03125C23.4375 7.46094 23.7891 7.8125 24.2188 7.8125C24.6484 7.8125 25 7.46094 25 7.03125V3.90625ZM24.2188 9.375C23.7891 9.375 23.4375 9.72656 23.4375 10.1562V13.2812C23.4375 13.7109 23.7891 14.0625 24.2188 14.0625C24.6484 14.0625 25 13.7109 25 13.2812V10.1562C25 9.72656 24.6484 9.375 24.2188 9.375ZM25 16.4062C25 15.9766 24.6484 15.625 24.2188 15.625C23.7891 15.625 23.4375 15.9766 23.4375 16.4062V19.5312C23.4375 19.9609 23.7891 20.3125 24.2188 20.3125C24.6484 20.3125 25 19.9609 25 19.5312V16.4062Z" fill="#333333"/>
</svg>
